<?xml version="1.0" encoding="UTF-8" standalone="no"?>
<svg
   xmlns:svg="http://www.w3.org/2000/svg"
   xmlns="http://www.w3.org/2000/svg"
   viewBox="0 0 200 200"
   version="1.1">
  <path d="m 62.5,31.433332 c 0,-13.7632 -11.2,-24.9333336 -25,-24.9333336 -13.8,0 -25,11.1701336 -25,24.9333336 0,13.7632 11.2,24.933334 25,24.933334 13.8,0 25,-11.170134 25,-24.933334 z m 43.75,12.466667 c 10.35,0 18.75,-8.3776 18.75,-18.7 0,-10.3224 -8.4,-18.7000006 -18.75,-18.7000006 -10.35,0 -18.75,8.3776006 -18.75,18.7000006 0,10.3224 8.4,18.7 18.75,18.7 z m 62.5,-24.933334 c -10.35,0 -18.75,8.3776 -18.75,18.700001 0,10.3224 8.4,18.7 18.75,18.7 10.35,0 18.75,-8.3776 18.75,-18.7 0,-10.322401 -8.4,-18.700001 -18.75,-18.700001 z M 104.9,56.603533 C 89.85,56.366666 72.725,58.685466 59.0125,70.803066 45.2875,82.920666 47,113.18973 66.4,121.33047 c 19.4125,8.12826 23.6875,22.19066 18.4875,39.69386 -5.2,17.5032 3.675,32.47567 25.8625,32.47567 38.25,0 51.75,-35.74193 51.75,-75.78487 0,-43.546064 -17.1625,-60.500731 -57.6,-61.111597 z"/>
</svg>
